<svg width="520" height="520" viewBox="0 0 520 520" fill="none" xmlns="http://www.w3.org/2000/svg">
<rect width="520" height="520" rx="75" fill="url(#paint0_linear_373_87)"/>
<g filter="url(#filter0_d_373_87)">
<path fill-rule="evenodd" clip-rule="evenodd" d="M209.597 58.9641V141.333H295.882V184.278H209.597V270.168H166.454V184.278H86C90.7174 216.908 105.97 245.097 125.105 269.165C148.177 298.186 177.945 322.545 204.856 342.933L251.287 378.111C256.372 381.963 263.04 381.963 268.124 378.111L314.556 342.933C341.466 322.545 371.234 298.186 394.306 269.165C417.459 240.044 434.928 204.889 434.928 163.133C434.928 102.605 387.485 56 331.797 56C303.091 56 277.832 71.0652 259.706 90.5583C246.373 76.2202 229.181 64.2778 209.597 58.9641ZM166.454 141.333V58.2792C126.976 66.8897 94.923 99.1044 86.595 141.333H166.454Z" fill="url(#paint1_linear_373_87)"/>
</g>
<path d="M106.071 447.448C102.957 447.448 100.141 446.915 97.6232 445.848C95.1486 444.781 93.1859 443.245 91.7352 441.24C90.2846 439.235 89.5379 436.867 89.4952 434.136H99.0952C99.2232 435.971 99.8632 437.421 101.015 438.488C102.21 439.555 103.831 440.088 105.879 440.088C107.97 440.088 109.613 439.597 110.807 438.616C112.002 437.592 112.599 436.269 112.599 434.648C112.599 433.325 112.194 432.237 111.383 431.384C110.573 430.531 109.549 429.869 108.311 429.4C107.117 428.888 105.453 428.333 103.319 427.736C100.418 426.883 98.0499 426.051 96.2152 425.24C94.4232 424.387 92.8659 423.128 91.5432 421.464C90.2632 419.757 89.6232 417.496 89.6232 414.68C89.6232 412.035 90.2846 409.731 91.6072 407.768C92.9299 405.805 94.7859 404.312 97.1752 403.288C99.5646 402.221 102.295 401.688 105.367 401.688C109.975 401.688 113.709 402.819 116.567 405.08C119.469 407.299 121.069 410.413 121.367 414.424H111.511C111.426 412.888 110.765 411.629 109.527 410.648C108.333 409.624 106.733 409.112 104.727 409.112C102.978 409.112 101.57 409.56 100.503 410.456C99.4792 411.352 98.9672 412.653 98.9672 414.36C98.9672 415.555 99.3512 416.557 100.119 417.368C100.93 418.136 101.911 418.776 103.063 419.288C104.258 419.757 105.922 420.312 108.055 420.952C110.957 421.805 113.325 422.659 115.159 423.512C116.994 424.365 118.573 425.645 119.895 427.352C121.218 429.059 121.879 431.299 121.879 434.072C121.879 436.461 121.261 438.68 120.023 440.728C118.786 442.776 116.973 444.419 114.583 445.656C112.194 446.851 109.357 447.448 106.071 447.448ZM130.543 429.144C130.543 425.56 131.247 422.381 132.655 419.608C134.106 416.835 136.047 414.701 138.479 413.208C140.954 411.715 143.706 410.968 146.735 410.968C149.381 410.968 151.685 411.501 153.647 412.568C155.653 413.635 157.253 414.979 158.447 416.6V411.544H167.471V447H158.447V441.816C157.295 443.48 155.695 444.867 153.647 445.976C151.642 447.043 149.317 447.576 146.671 447.576C143.685 447.576 140.954 446.808 138.479 445.272C136.047 443.736 134.106 441.581 132.655 438.808C131.247 435.992 130.543 432.771 130.543 429.144ZM158.447 429.272C158.447 427.096 158.021 425.24 157.167 423.704C156.314 422.125 155.162 420.931 153.711 420.12C152.261 419.267 150.703 418.84 149.039 418.84C147.375 418.84 145.839 419.245 144.431 420.056C143.023 420.867 141.871 422.061 140.975 423.64C140.122 425.176 139.695 427.011 139.695 429.144C139.695 431.277 140.122 433.155 140.975 434.776C141.871 436.355 143.023 437.571 144.431 438.424C145.882 439.277 147.418 439.704 149.039 439.704C150.703 439.704 152.261 439.299 153.711 438.488C155.162 437.635 156.314 436.44 157.167 434.904C158.021 433.325 158.447 431.448 158.447 429.272ZM199.07 411.032C203.294 411.032 206.708 412.376 209.31 415.064C211.913 417.709 213.214 421.421 213.214 426.2V447H204.254V427.416C204.254 424.6 203.55 422.445 202.142 420.952C200.734 419.416 198.814 418.648 196.382 418.648C193.908 418.648 191.945 419.416 190.494 420.952C189.086 422.445 188.382 424.6 188.382 427.416V447H179.422V411.544H188.382V415.96C189.577 414.424 191.092 413.229 192.926 412.376C194.804 411.48 196.852 411.032 199.07 411.032ZM229.479 407.32C227.857 407.32 226.513 406.829 225.447 405.848C224.423 404.824 223.911 403.565 223.911 402.072C223.911 400.579 224.423 399.341 225.447 398.36C226.513 397.336 227.857 396.824 229.479 396.824C231.057 396.824 232.359 397.336 233.383 398.36C234.407 399.341 234.919 400.579 234.919 402.072C234.919 403.565 234.407 404.824 233.383 405.848C232.359 406.829 231.057 407.32 229.479 407.32ZM233.895 452.824C233.895 456.749 232.913 459.565 230.951 461.272C229.031 463.021 226.257 463.896 222.631 463.896H218.663V456.28H221.223C222.588 456.28 223.548 456.003 224.103 455.448C224.657 454.936 224.935 454.083 224.935 452.888V411.544H233.895V452.824ZM278.907 428.504C278.907 429.784 278.822 430.936 278.651 431.96H252.731C252.945 434.52 253.841 436.525 255.419 437.976C256.998 439.427 258.939 440.152 261.243 440.152C264.571 440.152 266.939 438.723 268.347 435.864H278.011C276.987 439.277 275.025 442.093 272.123 444.312C269.222 446.488 265.659 447.576 261.435 447.576C258.022 447.576 254.95 446.829 252.219 445.336C249.531 443.8 247.419 441.645 245.883 438.872C244.39 436.099 243.643 432.899 243.643 429.272C243.643 425.603 244.39 422.381 245.883 419.608C247.377 416.835 249.467 414.701 252.155 413.208C254.843 411.715 257.937 410.968 261.435 410.968C264.806 410.968 267.814 411.693 270.459 413.144C273.147 414.595 275.217 416.664 276.667 419.352C278.161 421.997 278.907 425.048 278.907 428.504ZM269.627 425.944C269.585 423.64 268.753 421.805 267.131 420.44C265.51 419.032 263.526 418.328 261.179 418.328C258.961 418.328 257.083 419.011 255.547 420.376C254.054 421.699 253.137 423.555 252.795 425.944H269.627ZM321.607 428.504C321.607 429.784 321.522 430.936 321.351 431.96H295.431C295.645 434.52 296.541 436.525 298.119 437.976C299.698 439.427 301.639 440.152 303.943 440.152C307.271 440.152 309.639 438.723 311.047 435.864H320.711C319.687 439.277 317.725 442.093 314.823 444.312C311.922 446.488 308.359 447.576 304.135 447.576C300.722 447.576 297.65 446.829 294.919 445.336C292.231 443.8 290.119 441.645 288.583 438.872C287.09 436.099 286.343 432.899 286.343 429.272C286.343 425.603 287.09 422.381 288.583 419.608C290.077 416.835 292.167 414.701 294.855 413.208C297.543 411.715 300.637 410.968 304.135 410.968C307.506 410.968 310.514 411.693 313.159 413.144C315.847 414.595 317.917 416.664 319.367 419.352C320.861 421.997 321.607 425.048 321.607 428.504ZM312.327 425.944C312.285 423.64 311.453 421.805 309.831 420.44C308.21 419.032 306.226 418.328 303.879 418.328C301.661 418.328 299.783 419.011 298.247 420.376C296.754 421.699 295.837 423.555 295.495 425.944H312.327ZM346.131 438.744L355.091 411.544H364.627L351.507 447H340.627L327.571 411.544H337.171L346.131 438.744ZM392.508 411.032C396.732 411.032 400.145 412.376 402.748 415.064C405.35 417.709 406.652 421.421 406.652 426.2V447H397.692V427.416C397.692 424.6 396.988 422.445 395.58 420.952C394.172 419.416 392.252 418.648 389.82 418.648C387.345 418.648 385.382 419.416 383.932 420.952C382.524 422.445 381.82 424.6 381.82 427.416V447H372.86V411.544H381.82V415.96C383.014 414.424 384.529 413.229 386.364 412.376C388.241 411.48 390.289 411.032 392.508 411.032ZM422.916 407.32C421.338 407.32 420.015 406.829 418.948 405.848C417.924 404.824 417.412 403.565 417.412 402.072C417.412 400.579 417.924 399.341 418.948 398.36C420.015 397.336 421.338 396.824 422.916 396.824C424.495 396.824 425.796 397.336 426.82 398.36C427.887 399.341 428.42 400.579 428.42 402.072C428.42 403.565 427.887 404.824 426.82 405.848C425.796 406.829 424.495 407.32 422.916 407.32ZM427.332 411.544V447H418.372V411.544H427.332Z" fill="white"/>
<defs>
<filter id="filter0_d_373_87" x="56" y="31" width="408.928" height="385" filterUnits="userSpaceOnUse" color-interpolation-filters="sRGB">
<feFlood flood-opacity="0" result="BackgroundImageFix"/>
<feColorMatrix in="SourceAlpha" type="matrix" values="0 0 0 0 0 0 0 0 0 0 0 0 0 0 0 0 0 0 127 0" result="hardAlpha"/>
<feOffset dy="5"/>
<feGaussianBlur stdDeviation="15"/>
<feComposite in2="hardAlpha" operator="out"/>
<feColorMatrix type="matrix" values="0 0 0 0 0 0 0 0 0 0 0 0 0 0 0 0 0 0 0.3 0"/>
<feBlend mode="normal" in2="BackgroundImageFix" result="effect1_dropShadow_373_87"/>
<feBlend mode="normal" in="SourceGraphic" in2="effect1_dropShadow_373_87" result="shape"/>
</filter>
<linearGradient id="paint0_linear_373_87" x1="85.5" y1="48" x2="355.5" y2="494.5" gradientUnits="userSpaceOnUse">
<stop offset="0.200293" stop-color="#48ADF6"/>
<stop offset="0.891137" stop-color="#0061A7"/>
</linearGradient>
<linearGradient id="paint1_linear_373_87" x1="260.296" y1="87.2035" x2="260.296" y2="362.761" gradientUnits="userSpaceOnUse">
<stop offset="0.269642" stop-color="white"/>
<stop offset="0.897299" stop-color="#E0E0E0"/>
</linearGradient>
</defs>
</svg>
